HIERARCHY
ROOT mixamorig:Hips
{
	OFFSET 0.000000 201.639420 0.000000
	CHANNELS 6 Xposition Yposition Zposition Xrotation Yrotation Zrotation
	JOINT mixamorig:Spine
	{
		OFFSET 0.006200 19.524994 -2.481800
		CHANNELS 3 Xrotation Yrotation Zrotation
		JOINT mixamorig:Spine1
		{
			OFFSET -0.000900 22.835007 -2.825400
			CHANNELS 3 Xrotation Yrotation Zrotation
			JOINT mixamorig:Spine2
			{
				OFFSET -0.020600 26.552490 -3.193300
				CHANNELS 3 Xrotation Yrotation Zrotation
				JOINT mixamorig:Neck
				{
					OFFSET -0.060000 30.701813 1.352200
					CHANNELS 3 Xrotation Yrotation Zrotation
					JOINT mixamorig:Head
					{
						OFFSET -0.087200 22.547607 3.670900
						CHANNELS 3 Xrotation Yrotation Zrotation
						JOINT mixamorig:HeadTop_End
						{
							OFFSET -0.830600 40.355194 7.893500
							CHANNELS 3 Xrotation Yrotation Zrotation
							End Site
							{
								OFFSET 0.000000 30.592346 0.000000
							}
						}
						JOINT mixamorig:RightEye
						{
							OFFSET -6.302100 18.118591 16.197100
							CHANNELS 3 Xrotation Yrotation Zrotation
							End Site
							{
								OFFSET 0.000000 30.592346 0.000000
							}
						}
						JOINT mixamorig:LeftEye
						{
							OFFSET 6.741500 18.382690 16.401899
							CHANNELS 3 Xrotation Yrotation Zrotation
							End Site
							{
								OFFSET 0.000000 30.592346 0.000000
							}
						}
					}
				}
				JOINT mixamorig:LeftShoulder
				{
					OFFSET 11.924900 18.230499 1.425400
					CHANNELS 3 Xrotation Yrotation Zrotation
					JOINT mixamorig:LeftArm
					{
						OFFSET 25.435989 -0.697632 -5.229300
						CHANNELS 3 Xrotation Yrotation Zrotation
						JOINT mixamorig:LeftForeArm
						{
							OFFSET 54.684776 0.000000 0.000000
							CHANNELS 3 Xrotation Yrotation Zrotation
							JOINT mixamorig:LeftHand
							{
								OFFSET 55.098175 0.000000 0.000000
								CHANNELS 3 Xrotation Yrotation Zrotation
								JOINT mixamorig:LeftHandMiddle1
								{
									OFFSET 23.369751 0.000000 0.000000
									CHANNELS 3 Xrotation Yrotation Zrotation
									JOINT mixamorig:LeftHandMiddle2
									{
										OFFSET 6.378677 0.000000 0.000000
										CHANNELS 3 Xrotation Yrotation Zrotation
										JOINT mixamorig:LeftHandMiddle3
										{
											OFFSET 6.148331 0.000000 0.000000
											CHANNELS 3 Xrotation Yrotation Zrotation
											JOINT mixamorig:LeftHandMiddle4
											{
												OFFSET 6.582504 0.000000 0.000000
												CHANNELS 3 Xrotation Yrotation Zrotation
												End Site
												{
													OFFSET -1.168900 6.395691 1.028606
												}
											}
										}
									}
								}
								JOINT mixamorig:LeftHandThumb1
								{
									OFFSET 7.235672 -3.848206 5.434273
									CHANNELS 3 Xrotation Yrotation Zrotation
									JOINT mixamorig:LeftHandThumb2
									{
										OFFSET 6.568451 -3.792297 3.792300
										CHANNELS 3 Xrotation Yrotation Zrotation
										JOINT mixamorig:LeftHandThumb3
										{
											OFFSET 6.063080 -3.500519 3.500518
											CHANNELS 3 Xrotation Yrotation Zrotation
											JOINT mixamorig:LeftHandThumb4
											{
												OFFSET 4.793182 -2.767334 2.767349
												CHANNELS 3 Xrotation Yrotation Zrotation
												End Site
												{
													OFFSET 0.101639 6.054260 1.275483
												}
											}
										}
									}
								}
								JOINT mixamorig:LeftHandIndex1
								{
									OFFSET 23.101074 -0.309540 4.992809
									CHANNELS 3 Xrotation Yrotation Zrotation
									JOINT mixamorig:LeftHandIndex2
									{
										OFFSET 6.226883 0.000000 0.000000
										CHANNELS 3 Xrotation Yrotation Zrotation
										JOINT mixamorig:LeftHandIndex3
										{
											OFFSET 6.094330 0.000000 0.000000
											CHANNELS 3 Xrotation Yrotation Zrotation
											JOINT mixamorig:LeftHandIndex4
											{
												OFFSET 5.482605 0.000000 0.000000
												CHANNELS 3 Xrotation Yrotation Zrotation
												End Site
												{
													OFFSET -1.427902 5.233032 0.797164
												}
											}
										}
									}
								}
								JOINT mixamorig:LeftHandRing1
								{
									OFFSET 22.299240 0.021149 -3.964172
									CHANNELS 3 Xrotation Yrotation Zrotation
									JOINT mixamorig:LeftHandRing2
									{
										OFFSET 6.321869 0.000000 0.000000
										CHANNELS 3 Xrotation Yrotation Zrotation
										JOINT mixamorig:LeftHandRing3
										{
											OFFSET 5.899796 0.000000 0.000000
											CHANNELS 3 Xrotation Yrotation Zrotation
											JOINT mixamorig:LeftHandRing4
											{
												OFFSET 6.517899 0.000000 0.000000
												CHANNELS 3 Xrotation Yrotation Zrotation
												End Site
												{
													OFFSET -1.637299 6.232208 0.980890
												}
											}
										}
									}
								}
								JOINT mixamorig:LeftHandPinky1
								{
									OFFSET 20.463791 -0.302338 -8.562233
									CHANNELS 3 Xrotation Yrotation Zrotation
									JOINT mixamorig:LeftHandPinky2
									{
										OFFSET 6.908646 0.000000 0.000000
										CHANNELS 3 Xrotation Yrotation Zrotation
										JOINT mixamorig:LeftHandPinky3
										{
											OFFSET 4.622849 0.000000 0.000000
											CHANNELS 3 Xrotation Yrotation Zrotation
											JOINT mixamorig:LeftHandPinky4
											{
												OFFSET 5.216080 0.000000 0.000000
												CHANNELS 3 Xrotation Yrotation Zrotation
												End Site
												{
													OFFSET -0.606308 5.116241 0.814926
												}
											}
										}
									}
								}
							}
						}
					}
				}
				JOINT mixamorig:RightShoulder
				{
					OFFSET -12.001300 18.284088 1.348900
					CHANNELS 3 Xrotation Yrotation Zrotation
					JOINT mixamorig:RightArm
					{
						OFFSET -25.308500 -0.751312 -5.164599
						CHANNELS 3 Xrotation Yrotation Zrotation
						JOINT mixamorig:RightForeArm
						{
							OFFSET -54.684429 0.000000 0.000000
							CHANNELS 3 Xrotation Yrotation Zrotation
							JOINT mixamorig:RightHand
							{
								OFFSET -55.150291 0.000000 0.000000
								CHANNELS 3 Xrotation Yrotation Zrotation
								JOINT mixamorig:RightHandMiddle1
								{
									OFFSET -23.317566 0.000000 0.000000
									CHANNELS 3 Xrotation Yrotation Zrotation
									JOINT mixamorig:RightHandMiddle2
									{
										OFFSET -6.378403 0.000000 0.000000
										CHANNELS 3 Xrotation Yrotation Zrotation
										JOINT mixamorig:RightHandMiddle3
										{
											OFFSET -6.148193 0.000000 0.000000
											CHANNELS 3 Xrotation Yrotation Zrotation
											JOINT mixamorig:RightHandMiddle4
											{
												OFFSET -6.583389 0.000000 0.000000
												CHANNELS 3 Xrotation Yrotation Zrotation
												End Site
												{
													OFFSET 1.171692 6.395905 1.029786
												}
											}
										}
									}
								}
								JOINT mixamorig:RightHandThumb1
								{
									OFFSET -7.190521 -3.860474 5.435846
									CHANNELS 3 Xrotation Yrotation Zrotation
									JOINT mixamorig:RightHandThumb2
									{
										OFFSET -6.567429 -3.791718 3.791708
										CHANNELS 3 Xrotation Yrotation Zrotation
										JOINT mixamorig:RightHandThumb3
										{
											OFFSET -6.062469 -3.500153 3.500166
											CHANNELS 3 Xrotation Yrotation Zrotation
											JOINT mixamorig:RightHandThumb4
											{
												OFFSET -4.792618 -2.767029 2.767022
												CHANNELS 3 Xrotation Yrotation Zrotation
												End Site
												{
													OFFSET -0.100327 6.053253 1.276754
												}
											}
										}
									}
								}
								JOINT mixamorig:RightHandIndex1
								{
									OFFSET -23.048981 -0.310791 4.992554
									CHANNELS 3 Xrotation Yrotation Zrotation
									JOINT mixamorig:RightHandIndex2
									{
										OFFSET -6.227539 0.000000 0.000000
										CHANNELS 3 Xrotation Yrotation Zrotation
										JOINT mixamorig:RightHandIndex3
										{
											OFFSET -6.095047 0.000000 0.000000
											CHANNELS 3 Xrotation Yrotation Zrotation
											JOINT mixamorig:RightHandIndex4
											{
												OFFSET -5.484772 0.000000 0.000000
												CHANNELS 3 Xrotation Yrotation Zrotation
												End Site
												{
													OFFSET 1.420593 5.237305 0.797056
												}
											}
										}
									}
								}
								JOINT mixamorig:RightHandRing1
								{
									OFFSET -22.246323 0.020569 -3.963762
									CHANNELS 3 Xrotation Yrotation Zrotation
									JOINT mixamorig:RightHandRing2
									{
										OFFSET -6.322128 0.000000 0.000000
										CHANNELS 3 Xrotation Yrotation Zrotation
										JOINT mixamorig:RightHandRing3
										{
											OFFSET -5.900024 0.000000 0.000000
											CHANNELS 3 Xrotation Yrotation Zrotation
											JOINT mixamorig:RightHandRing4
											{
												OFFSET -6.518356 0.000000 0.000000
												CHANNELS 3 Xrotation Yrotation Zrotation
												End Site
												{
													OFFSET 1.636398 6.232697 0.982186
												}
											}
										}
									}
								}
								JOINT mixamorig:RightHandPinky1
								{
									OFFSET -20.411011 -0.303314 -8.561701
									CHANNELS 3 Xrotation Yrotation Zrotation
									JOINT mixamorig:RightHandPinky2
									{
										OFFSET -6.907349 0.000000 0.000000
										CHANNELS 3 Xrotation Yrotation Zrotation
										JOINT mixamorig:RightHandPinky3
										{
											OFFSET -4.623840 0.000000 0.000000
											CHANNELS 3 Xrotation Yrotation Zrotation
											JOINT mixamorig:RightHandPinky4
											{
												OFFSET -5.218353 0.000000 0.000000
												CHANNELS 3 Xrotation Yrotation Zrotation
												End Site
												{
													OFFSET 0.602097 5.118835 0.816273
												}
											}
										}
									}
								}
							}
						}
					}
				}
			}
		}
	}
	JOINT mixamorig:LeftUpLeg
	{
		OFFSET 18.168400 -13.561905 -0.039000
		CHANNELS 3 Xrotation Yrotation Zrotation
		JOINT mixamorig:LeftLeg
		{
			OFFSET 0.577358 -80.825211 -3.695000
			CHANNELS 3 Xrotation Yrotation Zrotation
			JOINT mixamorig:LeftFoot
			{
				OFFSET -0.577356 -83.370262 -6.520700
				CHANNELS 3 Xrotation Yrotation Zrotation
				JOINT mixamorig:LeftToeBase
				{
					OFFSET 0.750401 -20.798306 25.135401
					CHANNELS 3 Xrotation Yrotation Zrotation
					JOINT mixamorig:LeftToe_End
					{
						OFFSET -0.000500 0.001200 19.917799
						CHANNELS 3 Xrotation Yrotation Zrotation
						End Site
						{
							OFFSET 0.000000 19.917805 0.000000
						}
					}
				}
			}
		}
	}
	JOINT mixamorig:RightUpLeg
	{
		OFFSET -18.162500 -13.585098 -0.041000
		CHANNELS 3 Xrotation Yrotation Zrotation
		JOINT mixamorig:RightLeg
		{
			OFFSET -0.595024 -80.945297 -3.631900
			CHANNELS 3 Xrotation Yrotation Zrotation
			JOINT mixamorig:RightFoot
			{
				OFFSET 0.595024 -83.218193 -6.561200
				CHANNELS 3 Xrotation Yrotation Zrotation
				JOINT mixamorig:RightToeBase
				{
					OFFSET -0.753601 -20.807106 25.115000
					CHANNELS 3 Xrotation Yrotation Zrotation
					JOINT mixamorig:RightToe_End
					{
						OFFSET 0.000299 0.001700 19.918200
						CHANNELS 3 Xrotation Yrotation Zrotation
						End Site
						{
							OFFSET 0.000000 19.918203 0.000000
						}
					}
				}
			}
		}
	}
}
MOTION
Frames: 4
Frame Time: 0.033333
0.442747 27.906769 7.475861 82.073281 -4.124220 -2.564690 5.840472 -1.476715 -0.138818 -4.505671 -5.981538 1.125164 -3.978356 -6.220826 0.289838 -32.792585 -1.702237 16.058676 -6.181634 25.655049 -5.100570 -0.000001 0.000001 -0.000000 -0.000001 0.000001 -0.000000 -0.000001 0.000001 -0.000000 -32.464149 -38.489448 29.683661 -79.250883 -12.366249 -42.888742 0.000024 -47.567104 0.000015 -117.693011 16.517995 25.032729 0.405916 5.507038 -52.453162 3.387139 5.308603 -65.057470 0.282017 1.797461 -17.832376 -0.000002 -0.000001 0.000004 1.567991 0.456396 2.719341 19.471724 -1.478267 7.637081 -4.536172 -9.613110 1.492981 0.000002 0.000001 -0.000001 -1.882820 2.129410 -39.817018 2.947092 5.081719 -60.200502 0.514392 2.402400 -24.167398 0.000001 0.000001 0.000001 -0.074369 5.736803 -61.061434 4.422101 5.674473 -75.840406 0.582656 2.548941 -25.748010 -0.000003 0.000002 -0.000001 2.216797 7.072462 -64.435431 4.422610 5.674608 -75.845761 1.294123 3.673939 -38.798470 -0.000001 -0.000001 0.000000 -20.876769 19.499222 15.427036 -54.224646 48.923894 38.187752 0.000038 110.391245 -0.000055 -42.846258 -8.113300 -56.436993 3.413055 -7.186244 51.650242 6.296834 -4.359589 110.634707 0.248724 -1.503060 18.790279 0.000001 0.000000 0.000001 8.377119 -4.904124 11.021997 21.620209 -18.183866 -18.379204 -0.702942 -49.821206 -32.535186 -0.000002 -0.000000 0.000000 -1.101434 1.407128 15.159535 1.422381 -3.352160 45.974099 0.615848 -2.316435 29.773112 0.000001 0.000000 -0.000001 -3.349039 -2.600439 57.010575 5.440867 -4.590882 99.698140 1.689402 -3.590669 50.382255 -0.000001 0.000000 0.000000 -3.996452 -3.303923 64.593857 4.058807 -4.618674 82.610503 2.315558 -4.026802 59.787214 0.000001 0.000001 0.000001 -12.965434 33.063494 21.288897 22.521295 -9.332962 -9.852619 -10.082776 15.023047 23.427832 9.646411 13.754829 42.662905 0.000002 -0.000001 0.000000 -43.280744 -38.439444 -49.752406 30.121025 -2.166972 -1.055613 -4.912319 7.882616 13.972779 -26.499264 -21.630775 35.942832 -0.000001 0.000000 0.000002 
0.441107 27.919830 7.484451 82.085644 -4.140708 -2.561963 5.845512 -1.503649 -0.134304 -4.505919 -5.985197 1.141662 -3.978182 -6.223575 0.306276 -32.739702 -1.709097 16.018132 -6.300648 25.520181 -5.134829 -0.000001 0.000000 0.000000 -0.000001 0.000000 0.000000 -0.000001 0.000000 0.000000 -32.583882 -38.519671 29.420398 -79.083933 -12.738988 -42.741678 -0.000014 -47.419162 -0.000026 -117.819302 16.476013 24.969495 0.722629 5.778105 -53.076092 3.411427 5.319799 -65.319763 0.290076 1.822295 -18.087541 -0.000000 0.000000 -0.000000 1.643995 0.689160 2.796540 19.535519 -1.237901 7.703303 -4.445559 -9.380894 1.572136 0.000001 0.000001 -0.000001 -1.695163 2.437653 -40.420083 2.972038 5.095879 -60.481755 0.525105 2.426128 -24.421857 0.000001 0.000001 0.000002 0.297766 5.981746 -61.687215 4.448357 5.681019 -76.105799 0.594077 2.572468 -26.003392 0.000001 0.000000 -0.000002 2.623849 7.276424 -65.073862 4.448034 5.680926 -76.102623 1.310572 3.694255 -39.054407 -0.000001 0.000002 0.000001 -20.878556 19.503641 15.480976 -54.239365 48.962218 38.208966 0.000059 110.309679 -0.000095 -42.844653 -8.051383 -56.332098 3.413057 -7.186243 51.650239 6.296833 -4.359588 110.634714 0.248726 -1.503060 18.790276 0.000001 -0.000000 -0.000000 8.377119 -4.904124 11.021996 21.620212 -18.183866 -18.379204 -0.702941 -49.821206 -32.535179 -0.000001 -0.000001 -0.000000 -2.129124 2.684797 20.825991 1.638960 -3.548406 49.571877 0.564836 -2.224934 28.485292 0.000001 0.000000 0.000000 -3.349038 -2.600439 57.010575 5.440865 -4.590883 99.698140 1.689401 -3.590670 50.382255 -0.000001 0.000001 0.000000 -3.996451 -3.303922 64.593857 4.058807 -4.618675 82.610503 2.315558 -4.026802 59.787214 0.000001 -0.000000 -0.000003 -12.958751 33.060602 21.272155 22.495247 -9.309401 -9.853100 -10.066290 15.027808 23.424380 9.646434 13.754764 42.663021 0.000001 0.000000 -0.000003 -43.288052 -38.434673 -49.728435 30.105210 -2.178806 -1.069896 -4.902539 7.893581 13.973225 -26.499204 -21.630654 35.942709 0.000000 0.000000 0.000000 
0.429387 27.941650 7.504059 82.123210 -4.152740 -2.572769 5.852089 -1.526839 -0.136688 -4.513572 -5.996255 1.159351 -3.985030 -6.233579 0.324824 -32.662631 -1.717175 16.017400 -6.585315 25.420002 -5.161741 -0.000005 0.000001 -0.000001 -0.000005 0.000001 -0.000001 -0.000005 0.000001 -0.000001 -32.647211 -38.440363 29.344549 -78.924837 -12.893122 -42.748744 0.000012 -47.535002 0.000011 -117.909624 16.355257 25.009207 1.110592 6.104411 -54.078747 3.466199 5.344509 -65.908969 0.308741 1.878480 -18.665763 0.000004 0.000003 0.000000 1.814847 1.216271 2.970117 19.678813 -0.693670 7.852118 -4.241880 -8.854974 1.749733 -0.000002 -0.000001 0.000000 -1.470809 2.822561 -41.395461 3.026580 5.126259 -61.094171 0.549824 2.479802 -24.999490 -0.000000 0.000001 0.000001 0.749384 6.278519 -62.692811 4.507195 5.695181 -76.699404 0.620323 2.625534 -26.582161 -0.000001 0.000003 0.000001 3.120860 7.513536 -66.095891 4.505810 5.694844 -76.685512 1.348180 3.740030 -39.634509 0.000000 -0.000002 -0.000000 -20.943710 19.380824 15.581215 -54.118850 49.023246 38.260961 0.000020 110.341494 -0.000033 -42.829821 -7.952190 -56.286681 3.413057 -7.186241 51.650246 6.296833 -4.359589 110.634707 0.248725 -1.503060 18.790276 0.000001 0.000000 -0.000000 8.377121 -4.904124 11.021997 21.620218 -18.183862 -18.379201 -0.702946 -49.821210 -32.535179 -0.000002 -0.000001 -0.000001 -3.624999 3.896041 27.155148 1.896776 -3.752337 53.619434 0.510265 -2.121420 27.046975 -0.000000 -0.000000 -0.000001 -3.349038 -2.600438 57.010575 5.440866 -4.590882 99.698133 1.689401 -3.590671 50.382252 -0.000000 -0.000000 0.000000 -3.996450 -3.303921 64.593857 4.058807 -4.618676 82.610503 2.315557 -4.026802 59.787221 -0.000001 0.000000 -0.000000 -12.986688 33.055609 21.274163 22.450485 -9.294013 -9.853594 -10.032903 15.037042 23.420165 9.646397 13.754360 42.662721 0.000001 -0.000001 0.000000 -43.269074 -38.434031 -49.642105 30.066397 -2.234031 -1.096897 -4.886086 7.905697 13.981536 -26.499554 -21.630950 35.942600 -0.000001 0.000001 0.000000 
0.404105 27.968262 7.528793 82.193841 -4.147532 -2.591267 5.857116 -1.543776 -0.165253 -4.541492 -6.026348 1.149434 -4.012365 -6.263329 0.318053 -32.766798 -1.726645 15.975411 -6.677461 25.259066 -4.963817 -0.000004 0.000000 -0.000000 -0.000004 0.000000 -0.000000 -0.000004 0.000000 -0.000000 -32.393856 -38.227657 29.994735 -76.261876 -12.571644 -43.969264 -0.000004 -55.010740 -0.000017 -115.601594 15.511066 24.073350 1.502748 6.414850 -55.114381 3.524992 5.370293 -66.538713 0.329345 1.938348 -19.284320 0.000001 -0.000002 0.000002 1.995862 1.780593 3.154063 19.830493 -0.111186 8.009787 -4.026179 -8.291818 1.937298 0.000004 -0.000001 -0.000001 -1.240087 3.197740 -42.402685 3.085098 5.158007 -61.746939 0.576873 2.536943 -25.617518 -0.000002 -0.000000 -0.000001 1.202816 6.558378 -63.731293 4.570208 5.709638 -77.333731 0.648980 2.681997 -27.201326 -0.000002 0.000003 0.000001 3.618064 7.731527 -67.150465 4.567769 5.709086 -77.309108 1.388919 3.788579 -40.255038 -0.000002 -0.000001 -0.000000 -21.096684 19.074005 15.696784 -44.296519 48.547243 32.303393 0.000037 111.662583 -0.000034 -35.054655 0.648482 -59.382655 3.413056 -7.186242 51.650242 6.296833 -4.359588 110.634714 0.248725 -1.503060 18.790272 0.000002 0.000001 0.000001 8.377119 -4.904126 11.021997 21.620218 -18.183869 -18.379202 -0.702942 -49.821213 -32.535179 0.000001 -0.000002 -0.000000 -5.246370 4.740625 32.824824 2.141228 -3.920335 57.272229 0.463637 -2.027475 25.757982 0.000002 0.000000 -0.000001 -3.349038 -2.600440 57.010575 5.440867 -4.590883 99.698133 1.689403 -3.590671 50.382252 0.000000 0.000000 -0.000001 -3.996450 -3.303924 64.593850 4.058805 -4.618674 82.610503 2.315555 -4.026801 59.787214 -0.000002 -0.000000 0.000000 -13.066931 33.029538 21.278874 22.419118 -9.279915 -9.824900 -9.994654 15.051392 23.399084 9.646509 13.754999 42.663643 0.000001 -0.000001 0.000000 -43.251527 -38.438484 -49.529588 30.024654 -2.326013 -1.118281 -4.872636 7.922054 13.990152 -26.500053 -21.631434 35.942460 -0.000003 0.000000 -0.000002 
